<svg width="37" height="32" viewBox="0 0 37 32" fill="none" xmlns="http://www.w3.org/2000/svg">
<path d="M23.5896 5.5625V4.625C23.5896 2.57422 21.8904 0.875 19.8396 0.875C17.7595 0.875 16.0896 2.57422 16.0896 4.625V5.5625H13.2771V13.5312C13.2771 14.8496 14.3025 15.875 15.6208 15.875H24.0583C25.3474 15.875 26.4021 14.8496 26.4021 13.5312V5.5625H23.5896ZM17.9646 4.625C17.9646 3.59961 18.7849 2.75 19.8396 2.75C20.865 2.75 21.7146 3.59961 21.7146 4.625V5.5625H17.9646V4.625ZM22.6521 8.14062C22.2419 8.14062 21.949 7.84766 21.949 7.4375C21.949 7.05664 22.2419 6.73438 22.6521 6.73438C23.033 6.73438 23.3552 7.05664 23.3552 7.4375C23.3552 7.84766 23.033 8.14062 22.6521 8.14062ZM17.0271 8.14062C16.6169 8.14062 16.324 7.84766 16.324 7.4375C16.324 7.05664 16.6169 6.73438 17.0271 6.73438C17.408 6.73438 17.7302 7.05664 17.7302 7.4375C17.7302 7.84766 17.408 8.14062 17.0271 8.14062Z" fill="black"/>
<path d="M7.15967 21.1191C6.69092 20.1816 5.78271 19.625 4.61084 19.625C2.61865 19.625 1.271 21.2363 1.271 23.5801C1.271 25.9238 2.58936 27.4766 4.61084 27.4766C5.78271 27.4766 6.72021 26.9492 7.15967 25.9824V27.3594H8.36084V19.8008H7.15967V21.1191ZM7.15967 23.5508C7.15967 25.3965 6.33936 26.4512 4.84521 26.4512C3.35107 26.4512 2.50146 25.4258 2.50146 23.5801C2.50146 21.7344 3.35107 20.6504 4.84521 20.6504C6.33936 20.6504 7.15967 21.6758 7.15967 23.5508ZM17.3843 23.5215C17.3843 21.1777 16.0366 19.625 14.0151 19.625C12.8433 19.625 11.9058 20.1816 11.4663 21.1484V16.3145H10.2651V27.3594H11.4663V25.9531C11.9351 26.9199 12.8433 27.4766 14.0151 27.4766C16.0366 27.4766 17.3843 25.8652 17.3843 23.5215ZM16.1245 23.5215C16.1245 25.3672 15.2456 26.4512 13.8101 26.4512C12.3159 26.4512 11.4663 25.3965 11.4663 23.5508C11.4663 21.6758 12.3159 20.6504 13.8101 20.6504C15.2749 20.6504 16.1245 21.7051 16.1245 23.5215ZM25.1772 21.1191C24.7085 20.1816 23.8003 19.625 22.6284 19.625C20.6362 19.625 19.2886 21.2363 19.2886 23.5801C19.2886 25.9238 20.6069 27.4766 22.6284 27.4766C23.8003 27.4766 24.7378 26.9492 25.1772 25.9824V27.3594H26.3784V19.8008H25.1772V21.1191ZM25.1772 23.5508C25.1772 25.3965 24.3569 26.4512 22.8628 26.4512C21.3687 26.4512 20.519 25.4258 20.519 23.5801C20.519 21.7344 21.3687 20.6504 22.8628 20.6504C24.3569 20.6504 25.1772 21.6758 25.1772 23.5508ZM33.7905 21.1191C33.3218 20.1816 32.4136 19.625 31.2124 19.625C29.1909 19.625 27.8433 21.1484 27.8433 23.375C27.8433 25.6309 29.1909 27.125 31.2124 27.125C32.4136 27.125 33.3218 26.5684 33.7905 25.6309V27.418C33.7905 28.9121 33.0581 29.7031 31.5933 29.7031C30.5679 29.7031 29.8062 29.4688 28.8394 28.9414L28.6343 29.9375C29.4546 30.4355 30.4507 30.6992 31.5933 30.6992C33.8198 30.6992 34.9917 29.5273 34.9917 27.3008V19.8008H33.7905V21.1191ZM33.7905 23.375C33.7905 25.0742 32.9116 26.1289 31.4468 26.1289C29.9526 26.1289 29.0737 25.0742 29.0737 23.375C29.0737 21.6758 29.9526 20.6504 31.4468 20.6504C32.9116 20.6504 33.7905 21.6758 33.7905 23.375Z" fill="black"/>
</svg>
